<?xml version="1.0" standalone="no"?><!DOCTYPE svg PUBLIC "-//W3C//DTD SVG 1.1//EN" "http://www.w3.org/Graphics/SVG/1.1/DTD/svg11.dtd"><svg class="icon" width="200px" height="200.00px" viewBox="0 0 1024 1024" version="1.1" xmlns="http://www.w3.org/2000/svg"><path d="M512 272.438753V0.575676H256.143919a47.973015 47.973015 0 0 0-47.973015 47.973015v831.532263a47.973015 47.973015 0 0 0 47.973015 47.973016h607.658192a47.973015 47.973015 0 0 0 47.973015-47.973016V368.608658H607.94603c-52.994191 0-95.94603-43.063777-95.94603-96.169905z m95.94603 48.084952h303.829096L559.973015 0v272.438753a48.020988 48.020988 0 0 0 47.973015 48.084952zM160.197889 880.080954V96.521707a47.973015 47.973015 0 0 0-47.973015 47.973015v783.559248a95.94603 95.94603 0 0 0 95.94603 95.94603h559.685177a47.973015 47.973015 0 0 0 47.973015-47.973015H256.143919a95.94603 95.94603 0 0 1-95.94603-95.946031z"  /></svg>