<?xml version="1.0" standalone="no"?><!DOCTYPE svg PUBLIC "-//W3C//DTD SVG 1.1//EN" "http://www.w3.org/Graphics/SVG/1.1/DTD/svg11.dtd"><svg class="icon" width="200px" height="200.00px" viewBox="0 0 1024 1024" version="1.1" xmlns="http://www.w3.org/2000/svg"><path d="M747.52 430.08H604.16c-33.792 0-61.44-27.648-61.44-61.44V225.28c0-11.264-9.216-20.48-20.48-20.48H317.44c-33.792 0-61.44 27.648-61.44 61.44v491.52c0 33.792 27.648 61.44 61.44 61.44h389.12c33.792 0 61.44-27.648 61.44-61.44V450.56c0-11.264-9.216-20.48-20.48-20.48z m16.384-86.016L628.736 208.896c-3.072-3.072-6.144-4.096-10.24-4.096-8.192 0-14.336 6.144-14.336 14.336V327.68c0 22.528 18.432 40.96 40.96 40.96h108.544c8.192 0 14.336-6.144 14.336-14.336 0-4.096-1.024-7.168-4.096-10.24z" /></svg>